<?xml version="1.0" encoding="iso-8859-1"?>
<!-- Generator: Adobe Illustrator 19.0.0, SVG Export Plug-In . SVG Version: 6.00 Build 0)  -->
<svg version="1.1" id="Capa_1" xmlns="http://www.w3.org/2000/svg" xmlns:xlink="http://www.w3.org/1999/xlink" x="0px" y="0px"
	 viewBox="0 0 512.001 512.001" style="enable-background:new 0 0 512.001 512.001;" xml:space="preserve">
<path style="fill:#4CC7B3;" d="M458.485,255.07L256,233.256L53.514,255.07c-12.048,0-21.814,9.767-21.814,21.814l0,0
	c0,12.048,9.767,21.814,21.814,21.814l203.059,24.368l201.912-24.368c12.048,0,21.814-9.767,21.814-21.814l0,0
	C480.299,264.837,470.533,255.07,458.485,255.07z"/>
<path style="fill:#2AAC92;" d="M103.514,298.699c-12.048,0-21.814-9.767-21.814-21.814l0,0c0-12.047,9.767-21.814,21.814-21.814
	L281,235.949l-25-2.693L53.514,255.07c-12.048,0-21.814,9.767-21.814,21.814l0,0c0,12.048,9.767,21.814,21.814,21.814
	l203.059,24.368l24.929-3.009L103.514,298.699z"/>
<path style="fill:#F9545B;" d="M458.485,211.441L256,183.267L53.514,211.441c-12.048,0-21.814,9.767-21.814,21.814l0,0
	c0,12.048,9.767,21.814,21.814,21.814h404.971c12.048,0,21.814-9.767,21.814-21.814l0,0
	C480.3,221.208,470.533,211.441,458.485,211.441z"/>
<path style="fill:#E64047;" d="M81.7,233.256c0-12.048,9.767-21.814,21.814-21.814L281,186.745l-25-3.479L53.514,211.441
	c-12.048,0-21.814,9.767-21.814,21.814s9.767,21.814,21.814,21.814h50C91.467,255.07,81.7,245.304,81.7,233.256z"/>
<path style="fill:#A8503C;" d="M466.143,342.327l-0.95-23.492H45.857v23.492c-16.681,0-30.204,13.523-30.204,30.204l0,0
	c0,16.681,13.523,30.204,30.204,30.204L256,441.33l210.143-38.594c16.681,0,30.204-13.523,30.204-30.204l0,0
	C496.347,355.85,482.824,342.327,466.143,342.327z"/>
<path style="fill:#993E29;" d="M112.173,405.289c-18.562,0-33.609-15.047-33.609-33.608l0,0c0-18.562,15.047-33.608,33.609-33.608
	v-19.237H45.857v23.492c-16.681,0-30.204,13.523-30.204,30.204l0,0c0,16.681,13.523,30.204,30.204,30.204L256,441.331l26.207-4.813
	L112.173,405.289z"/>
<path style="fill:#FDC464;" d="M316.981,32.075H195.018c-99.061,0-179.366,80.305-179.366,179.366l0,0h480.695l0,0
	C496.347,112.38,416.042,32.075,316.981,32.075z"/>
<path style="fill:#E6B25B;" d="M245.018,32.075h-50c-99.061,0-179.366,80.305-179.366,179.366l0,0h50l0,0
	C65.652,112.38,145.957,32.075,245.018,32.075z"/>
<path style="fill:#E6BB00;" d="M455.703,298.699c20.023,0,25.871,12.947,27.136,24.359c2.091,18.864-20.503,30.872-34.491,18.044
	c-0.354-0.325-0.701-0.662-1.04-1.012l0,0c-9.486-9.792-25.193-9.792-34.679,0l0,0c-9.486,9.792-25.193,9.792-34.679,0l0,0
	c-9.486-9.792-25.193-9.792-34.679,0l0,0c-9.486,9.792-25.193,9.792-34.679,0l0,0c-9.486-9.792-25.193-9.792-34.679,0l0,0
	c-9.486,9.792-25.193,9.792-34.679,0l0,0c-9.486-9.792-25.193-9.792-34.679,0l0,0c-9.486,9.792-25.193,9.792-34.679,0l0,0
	c-9.486-9.792-25.193-9.792-34.679,0l0,0c-9.486,9.792-25.193,9.792-34.679,0l0,0c-9.486-9.792-25.193-9.792-34.679,0l0,0
	c-0.339,0.35-0.686,0.687-1.04,1.012c-13.988,12.828-36.583,0.82-34.491-18.044c1.265-11.412,7.113-24.359,27.136-24.359H455.703z"
	/>
<path style="fill:#CCA600;" d="M80.307,323.057c1.265-11.412,7.113-24.358,27.136-24.358h-50c-20.023,0-25.871,12.947-27.136,24.358
	c-2.091,18.864,20.503,30.873,34.491,18.044c0.354-0.325,0.701-0.662,1.04-1.012c4.324-4.463,9.941-6.885,15.671-7.28
	C80.39,329.878,79.916,326.588,80.307,323.057z"/>
<path style="fill:#FDC464;" d="M483.286,402.736H28.713c-11.716,0-21.213,9.498-21.213,21.213l0,0
	c0,30.914,25.061,55.976,55.976,55.976h385.049c30.914,0,55.976-25.061,55.976-55.976l0,0
	C504.5,412.233,495.002,402.736,483.286,402.736z"/>
<path style="fill:#E6B25B;" d="M57.5,423.949L57.5,423.949c0-11.716,9.497-21.213,21.213-21.213h-50
	c-11.716,0-21.213,9.498-21.213,21.213l0,0c0,30.915,25.061,55.976,55.975,55.976h50C82.561,479.925,57.5,454.864,57.5,423.949z"/>
<path d="M180.718,134.651v-14.982c0-4.142-3.358-7.5-7.5-7.5s-7.5,3.358-7.5,7.5v14.982c0,4.142,3.358,7.5,7.5,7.5
	S180.718,138.793,180.718,134.651z"/>
<path d="M346.282,134.651v-14.982c0-4.142-3.358-7.5-7.5-7.5s-7.5,3.358-7.5,7.5v14.982c0,4.142,3.358,7.5,7.5,7.5
	S346.282,138.793,346.282,134.651z"/>
<path d="M256,153.223c11.948,0,23.156-4.983,30.75-13.671c2.726-3.118,2.408-7.856-0.71-10.583
	c-3.119-2.727-7.857-2.408-10.583,0.71c-4.746,5.429-11.837,8.543-19.457,8.543s-14.711-3.114-19.457-8.543
	c-2.726-3.118-7.464-3.437-10.583-0.711s-3.437,7.464-0.711,10.583C232.844,148.24,244.052,153.223,256,153.223z"/>
<path d="M0,423.949c0,35,28.475,63.476,63.476,63.476h385.049c35,0,63.476-28.475,63.476-63.476c0-11.899-7.277-22.13-17.613-26.479
	c5.881-6.652,9.461-15.383,9.461-24.938c0-13.377-6.914-25.301-17.75-32.016c3.365-5.313,4.926-11.693,4.195-18.285
	c-1.163-10.491-5.276-18.602-11.851-23.896c5.753-5.356,9.358-12.989,9.358-21.45c0-8.655-3.773-16.444-9.758-21.814
	c5.985-5.371,9.758-13.159,9.758-21.814c0-5.196-1.365-10.077-3.746-14.314h12.294c4.142,0,7.5-3.358,7.5-7.5
	c0-103.039-83.828-186.867-186.866-186.867H195.019c-34.713,0-68.609,9.599-98.025,27.758c-3.524,2.176-4.618,6.797-2.442,10.322
	c2.176,3.524,6.797,4.618,10.321,2.442c27.046-16.697,58.218-25.522,90.146-25.522h121.963c92.257,0,167.769,73.061,171.705,164.367
	H23.316c2.037-46.598,22.993-90.551,58.201-121.543c3.109-2.737,3.411-7.476,0.674-10.585s-7.477-3.411-10.585-0.674
	C31.28,106.637,8.152,157.775,8.152,211.442c0,4.142,3.358,7.5,7.5,7.5h12.294c-2.381,4.237-3.747,9.118-3.747,14.314
	c0,8.655,3.773,16.443,9.758,21.814c-5.985,5.371-9.758,13.159-9.758,21.814c0,8.729,3.841,16.574,9.916,21.949
	c-6.229,5.299-10.135,13.226-11.263,23.397c-0.709,6.396,0.748,12.587,3.909,17.803c-11.239,6.638-18.61,18.893-18.61,32.498
	c0,9.555,3.58,18.286,9.461,24.938C7.277,401.82,0,412.05,0,423.949z M468.302,337.226c-3.614,1.961-8.089,2.299-11.827,0.462
	c-3.987-1.96-6.657-5.835-10.465-8.084c-12.381-7.313-28.792-5.03-38.768,5.268c-3.163,3.265-7.407,5.063-11.953,5.063
	c-4.545,0-8.79-1.798-11.953-5.062c-12.232-12.626-33.233-12.615-45.453,0c-3.109,3.209-7.487,5.062-11.952,5.062
	c-4.545,0-8.79-1.798-11.953-5.062c-12.166-12.557-33.31-12.536-45.452,0c-3.163,3.265-7.407,5.063-11.953,5.063
	c-4.545,0-8.79-1.798-11.953-5.062c-12.261-12.656-33.205-12.643-45.453,0c-3.163,3.265-7.407,5.063-11.953,5.063
	c-4.545,0-8.79-1.798-11.952-5.062c-12.214-12.608-33.272-12.572-45.453,0c-3.162,3.265-7.407,5.063-11.953,5.063
	c-4.545,0-8.79-1.798-11.952-5.062c-12.061-12.45-33.129-12.722-45.451-0.001c-8.692,8.973-24.034,1.133-22.692-10.986
	c1.258-11.343,6.58-16.849,17.121-17.59c0.029-0.002,0.059-0.001,0.089-0.003c0.821-0.059,400.732-0.093,400.732-0.093
	c12.256,0,18.326,5.455,19.682,17.686C475.988,329.329,473.095,334.626,468.302,337.226z M53.515,291.198
	c-7.893,0-14.314-6.421-14.314-14.314s6.421-14.314,14.314-14.314H374.68c4.142,0,7.5-3.358,7.5-7.5s-3.358-7.5-7.5-7.5H53.515
	c-7.893,0-14.314-6.421-14.314-14.314c0-7.892,6.421-14.313,14.313-14.314h404.973c7.892,0,14.313,6.422,14.313,14.314
	s-6.421,14.314-14.314,14.314H404.68c-4.142,0-7.5,3.358-7.5,7.5s3.358,7.5,7.5,7.5h53.806c7.893,0,14.314,6.421,14.314,14.314
	s-6.421,14.314-14.314,14.314C457.558,291.198,53.894,291.198,53.515,291.198z M38.749,350.961c0.19,0.094,0.385,0.169,0.576,0.259
	c1.031,0.485,2.098,0.92,3.181,1.278c9.442,3.129,19.762,1.091,27.366-5.872c7.251-6.639,17.743-9.077,25.259-1.317
	c6.013,6.207,14.084,9.625,22.727,9.625c8.641,0,16.712-3.418,22.726-9.625c6.416-6.622,17.513-6.6,23.906,0
	c6.013,6.207,14.084,9.625,22.726,9.625s16.713-3.418,22.725-9.624c6.403-6.609,17.522-6.592,23.906-0.001
	c6.013,6.207,14.083,9.625,22.726,9.625c8.641,0,16.713-3.418,22.726-9.625c6.388-6.594,17.549-6.565,23.906,0
	c6.013,6.207,14.084,9.625,22.726,9.625s16.712-3.418,22.726-9.625c6.287-6.49,17.611-6.5,23.906,0
	c6.013,6.207,14.085,9.625,22.727,9.625s16.713-3.418,22.726-9.625c6.349-6.554,17.43-6.684,23.907,0.001
	c8.063,8.321,21.494,10.838,31.994,5.886c8.91,3.217,14.93,11.646,14.93,21.335c0,12.516-10.181,22.7-22.695,22.705H45.849
	c-12.515-0.005-22.696-10.189-22.696-22.705C23.152,362.671,29.573,353.982,38.749,350.961z M28.713,410.236h454.573
	c7.562,0,13.713,6.152,13.713,13.713c0,26.729-21.746,48.476-48.476,48.476H63.476c-26.73,0-48.476-21.746-48.476-48.476
	C15,416.388,21.152,410.236,28.713,410.236z"/>
<g>
</g>
<g>
</g>
<g>
</g>
<g>
</g>
<g>
</g>
<g>
</g>
<g>
</g>
<g>
</g>
<g>
</g>
<g>
</g>
<g>
</g>
<g>
</g>
<g>
</g>
<g>
</g>
<g>
</g>
</svg>
