<?xml version="1.0" encoding="UTF-8" standalone="no"?>
<svg
   xmlns:dc="http://purl.org/dc/elements/1.1/"
   xmlns:cc="http://creativecommons.org/ns#"
   xmlns:rdf="http://www.w3.org/1999/02/22-rdf-syntax-ns#"
   xmlns:svg="http://www.w3.org/2000/svg"
   xmlns="http://www.w3.org/2000/svg"
   xmlns:sodipodi="http://sodipodi.sourceforge.net/DTD/sodipodi-0.dtd"
   xmlns:inkscape="http://www.inkscape.org/namespaces/inkscape"
   id="Capa_1"
   enable-background="new 0 0 512 512"
   height="512"
   viewBox="0 0 512 512"
   width="512"
   version="1.1"
   sodipodi:docname="x-ray-dark.svg"
   inkscape:version="0.92.5 (2060ec1f9f, 2020-04-08)">
  <metadata
     id="metadata3915">
    <rdf:RDF>
      <cc:Work
         rdf:about="">
        <dc:format>image/svg+xml</dc:format>
        <dc:type
           rdf:resource="http://purl.org/dc/dcmitype/StillImage" />
      </cc:Work>
    </rdf:RDF>
  </metadata>
  <defs
     id="defs3913" />
  <sodipodi:namedview
     pagecolor="#ffffff"
     bordercolor="#666666"
     borderopacity="1"
     objecttolerance="10"
     gridtolerance="10"
     guidetolerance="10"
     inkscape:pageopacity="0"
     inkscape:pageshadow="2"
     inkscape:window-width="1294"
     inkscape:window-height="704"
     id="namedview3911"
     showgrid="false"
     inkscape:zoom="0.72644173"
     inkscape:cx="-144.03169"
     inkscape:cy="221.19113"
     inkscape:window-x="72"
     inkscape:window-y="27"
     inkscape:window-maximized="1"
     inkscape:current-layer="Capa_1" />
  <g
     id="g3908">
    <g
       id="g3906">
      <path
         d="m361 317c0-24.81-20.19-45-45-45-24.26 0-34.93 18.45-49.96 29.94-5.71 5.14-14.37 5.14-20.08 0-14.5-11.08-25.78-29.94-49.96-29.94-24.81 0-45 20.19-45 45s20.19 45 45 45c7.78 0 15.61-2.26 22.64-6.52 9.46-5.74 21.68.41 22.72 11.41.73 7.79 8.17 15.92 14.64 21.45 6.46-5.52 13.91-13.66 14.64-21.45 1.04-11.01 13.27-17.15 22.72-11.41 7.03 4.26 14.86 6.52 22.64 6.52 24.81 0 45-20.19 45-45zm-165 15c-8.28 0-15-6.72-15-15s6.72-15 15-15 15 6.72 15 15-6.72 15-15 15zm120 0c-8.28 0-15-6.72-15-15s6.72-15 15-15 15 6.72 15 15-6.72 15-15 15zm45-15c0-24.81-20.19-45-45-45-24.26 0-34.93 18.45-49.96 29.94-5.71 5.14-14.37 5.14-20.08 0-14.5-11.08-25.78-29.94-49.96-29.94-24.81 0-45 20.19-45 45s20.19 45 45 45c7.78 0 15.61-2.26 22.64-6.52 9.46-5.74 21.68.41 22.72 11.41.73 7.79 8.17 15.92 14.64 21.45 6.46-5.52 13.91-13.66 14.64-21.45 1.04-11.01 13.27-17.15 22.72-11.41 7.03 4.26 14.86 6.52 22.64 6.52 24.81 0 45-20.19 45-45zm-165 15c-8.28 0-15-6.72-15-15s6.72-15 15-15 15 6.72 15 15-6.72 15-15 15zm120 0c-8.28 0-15-6.72-15-15s6.72-15 15-15 15 6.72 15 15-6.72 15-15 15zm45-15c0-24.81-20.19-45-45-45-24.26 0-34.93 18.45-49.96 29.94-5.71 5.14-14.37 5.14-20.08 0-14.5-11.08-25.78-29.94-49.96-29.94-24.81 0-45 20.19-45 45s20.19 45 45 45c7.78 0 15.61-2.26 22.64-6.52 9.46-5.74 21.68.41 22.72 11.41.73 7.79 8.17 15.92 14.64 21.45 6.46-5.52 13.91-13.66 14.64-21.45 1.04-11.01 13.27-17.15 22.72-11.41 7.03 4.26 14.86 6.52 22.64 6.52 24.81 0 45-20.19 45-45zm-165 15c-8.28 0-15-6.72-15-15s6.72-15 15-15 15 6.72 15 15-6.72 15-15 15zm120 0c-8.28 0-15-6.72-15-15s6.72-15 15-15 15 6.72 15 15-6.72 15-15 15zm45-15c0-24.81-20.19-45-45-45-24.26 0-34.93 18.45-49.96 29.94-5.71 5.14-14.37 5.14-20.08 0-14.5-11.08-25.78-29.94-49.96-29.94-24.81 0-45 20.19-45 45s20.19 45 45 45c7.78 0 15.61-2.26 22.64-6.52 9.46-5.74 21.68.41 22.72 11.41.73 7.79 8.17 15.92 14.64 21.45 6.46-5.52 13.91-13.66 14.64-21.45 1.04-11.01 13.27-17.15 22.72-11.41 7.03 4.26 14.86 6.52 22.64 6.52 24.81 0 45-20.19 45-45zm-165 15c-8.28 0-15-6.72-15-15s6.72-15 15-15 15 6.72 15 15-6.72 15-15 15zm120 0c-8.28 0-15-6.72-15-15s6.72-15 15-15 15 6.72 15 15-6.72 15-15 15zm45-15c0-24.81-20.19-45-45-45-24.26 0-34.93 18.45-49.96 29.94-5.71 5.14-14.37 5.14-20.08 0-14.5-11.08-25.78-29.94-49.96-29.94-24.81 0-45 20.19-45 45s20.19 45 45 45c7.78 0 15.61-2.26 22.64-6.52 9.46-5.74 21.68.41 22.72 11.41.73 7.79 8.17 15.92 14.64 21.45 6.46-5.52 13.91-13.66 14.64-21.45 1.04-11.01 13.27-17.15 22.72-11.41 7.03 4.26 14.86 6.52 22.64 6.52 24.81 0 45-20.19 45-45zm-165 15c-8.28 0-15-6.72-15-15s6.72-15 15-15 15 6.72 15 15-6.72 15-15 15zm120 0c-8.28 0-15-6.72-15-15s6.72-15 15-15 15 6.72 15 15-6.72 15-15 15zm45-15c0-24.81-20.19-45-45-45-24.26 0-34.93 18.45-49.96 29.94-5.71 5.14-14.37 5.14-20.08 0-14.5-11.08-25.78-29.94-49.96-29.94-24.81 0-45 20.19-45 45s20.19 45 45 45c7.78 0 15.61-2.26 22.64-6.52 9.46-5.74 21.68.41 22.72 11.41.73 7.79 8.17 15.92 14.64 21.45 6.46-5.52 13.91-13.66 14.64-21.45 1.04-11.01 13.27-17.15 22.72-11.41 7.03 4.26 14.86 6.52 22.64 6.52 24.81 0 45-20.19 45-45zm-165 15c-8.28 0-15-6.72-15-15s6.72-15 15-15 15 6.72 15 15-6.72 15-15 15zm120 0c-8.28 0-15-6.72-15-15s6.72-15 15-15 15 6.72 15 15-6.72 15-15 15zm196-317c0-8.28-6.72-15-15-15h-482c-8.28 0-15 6.72-15 15v482c0 8.28 6.72 15 15 15h482c8.28 0 15-6.72 15-15zm-436 47c8.28 0 15 6.72 15 15s-6.72 15-15 15-15-6.72-15-15 6.72-15 15-15zm90 390h-90c-8.28 0-15-6.72-15-15s6.72-15 15-15h90c8.28 0 15 6.72 15 15s-6.72 15-15 15zm128.46-63.33c-9.81 17.93-27.99 29.51-30.62 31.12-4.81 2.95-10.87 2.95-15.68 0-2.63-1.61-20.81-13.19-30.62-31.12-7 2.2-14.26 3.33-21.54 3.33-41.36 0-75-33.65-75-75 0-41.36 33.64-75 75-75 20.19 0 34.97 7.93 45 15.51v-45.51h-75c-24.81 0-45-20.19-45-45 0-8.28 6.72-15 15-15s15 6.72 15 15c0 8.27 6.73 15 15 15h75v-30h-75c-24.81 0-45-20.19-45-45 0-8.28 6.72-15 15-15s15 6.72 15 15c0 8.27 6.73 15 15 15h75v-30c0-8.28 6.72-15 15-15s15 6.72 15 15v30h75c8.27 0 15-6.73 15-15 0-8.28 6.72-15 15-15s15 6.72 15 15c0 24.81-20.19 45-45 45h-75v30h75c8.27 0 15-6.73 15-15 0-8.28 6.72-15 15-15s15 6.72 15 15c0 24.81-20.19 45-45 45h-75v45.51c10.02-7.58 24.8-15.51 45-15.51 41.36 0 75 33.64 75 75 0 41.35-33.64 75-75 75-7.28 0-14.54-1.13-21.54-3.33zm141.54 63.33h-90c-8.28 0-15-6.72-15-15s6.72-15 15-15h90c8.28 0 15 6.72 15 15s-6.72 15-15 15zm0-360c-8.28 0-15-6.72-15-15s6.72-15 15-15 15 6.72 15 15-6.72 15-15 15zm-75 225c0-24.81-20.19-45-45-45-24.26 0-34.93 18.45-49.96 29.94-5.71 5.14-14.37 5.14-20.08 0-14.5-11.08-25.78-29.94-49.96-29.94-24.81 0-45 20.19-45 45s20.19 45 45 45c7.78 0 15.61-2.26 22.64-6.52 9.46-5.74 21.68.41 22.72 11.41.73 7.79 8.17 15.92 14.64 21.45 6.46-5.52 13.91-13.66 14.64-21.45 1.04-11.01 13.27-17.15 22.72-11.41 7.03 4.26 14.86 6.52 22.64 6.52 24.81 0 45-20.19 45-45zm-165 15c-8.28 0-15-6.72-15-15s6.72-15 15-15 15 6.72 15 15-6.72 15-15 15zm120 0c-8.28 0-15-6.72-15-15s6.72-15 15-15 15 6.72 15 15-6.72 15-15 15zm45-15c0-24.81-20.19-45-45-45-24.26 0-34.93 18.45-49.96 29.94-5.71 5.14-14.37 5.14-20.08 0-14.5-11.08-25.78-29.94-49.96-29.94-24.81 0-45 20.19-45 45s20.19 45 45 45c7.78 0 15.61-2.26 22.64-6.52 9.46-5.74 21.68.41 22.72 11.41.73 7.79 8.17 15.92 14.64 21.45 6.46-5.52 13.91-13.66 14.64-21.45 1.04-11.01 13.27-17.15 22.72-11.41 7.03 4.26 14.86 6.52 22.64 6.52 24.81 0 45-20.19 45-45zm-165 15c-8.28 0-15-6.72-15-15s6.72-15 15-15 15 6.72 15 15-6.72 15-15 15zm120 0c-8.28 0-15-6.72-15-15s6.72-15 15-15 15 6.72 15 15-6.72 15-15 15zm45-15c0-24.81-20.19-45-45-45-24.26 0-34.93 18.45-49.96 29.94-5.71 5.14-14.37 5.14-20.08 0-14.5-11.08-25.78-29.94-49.96-29.94-24.81 0-45 20.19-45 45s20.19 45 45 45c7.78 0 15.61-2.26 22.64-6.52 9.46-5.74 21.68.41 22.72 11.41.73 7.79 8.17 15.92 14.64 21.45 6.46-5.52 13.91-13.66 14.64-21.45 1.04-11.01 13.27-17.15 22.72-11.41 7.03 4.26 14.86 6.52 22.64 6.52 24.81 0 45-20.19 45-45zm-165 15c-8.28 0-15-6.72-15-15s6.72-15 15-15 15 6.72 15 15-6.72 15-15 15zm120 0c-8.28 0-15-6.72-15-15s6.72-15 15-15 15 6.72 15 15-6.72 15-15 15zm45-15c0-24.81-20.19-45-45-45-24.26 0-34.93 18.45-49.96 29.94-5.71 5.14-14.37 5.14-20.08 0-14.5-11.08-25.78-29.94-49.96-29.94-24.81 0-45 20.19-45 45s20.19 45 45 45c7.78 0 15.61-2.26 22.64-6.52 9.46-5.74 21.68.41 22.72 11.41.73 7.79 8.17 15.92 14.64 21.45 6.46-5.52 13.91-13.66 14.64-21.45 1.04-11.01 13.27-17.15 22.72-11.41 7.03 4.26 14.86 6.52 22.64 6.52 24.81 0 45-20.19 45-45zm-165 15c-8.28 0-15-6.72-15-15s6.72-15 15-15 15 6.72 15 15-6.72 15-15 15zm120 0c-8.28 0-15-6.72-15-15s6.72-15 15-15 15 6.72 15 15-6.72 15-15 15zm45-15c0-24.81-20.19-45-45-45-24.26 0-34.93 18.45-49.96 29.94-5.71 5.14-14.37 5.14-20.08 0-14.5-11.08-25.78-29.94-49.96-29.94-24.81 0-45 20.19-45 45s20.19 45 45 45c7.78 0 15.61-2.26 22.64-6.52 9.46-5.74 21.68.41 22.72 11.41.73 7.79 8.17 15.92 14.64 21.45 6.46-5.52 13.91-13.66 14.64-21.45 1.04-11.01 13.27-17.15 22.72-11.41 7.03 4.26 14.86 6.52 22.64 6.52 24.81 0 45-20.19 45-45zm-165 15c-8.28 0-15-6.72-15-15s6.72-15 15-15 15 6.72 15 15-6.72 15-15 15zm120 0c-8.28 0-15-6.72-15-15s6.72-15 15-15 15 6.72 15 15-6.72 15-15 15zm45-15c0-24.81-20.19-45-45-45-24.26 0-34.93 18.45-49.96 29.94-5.71 5.14-14.37 5.14-20.08 0-14.5-11.08-25.78-29.94-49.96-29.94-24.81 0-45 20.19-45 45s20.19 45 45 45c7.78 0 15.61-2.26 22.64-6.52 9.46-5.74 21.68.41 22.72 11.41.73 7.79 8.17 15.92 14.64 21.45 6.46-5.52 13.91-13.66 14.64-21.45 1.04-11.01 13.27-17.15 22.72-11.41 7.03 4.26 14.86 6.52 22.64 6.52 24.81 0 45-20.19 45-45zm-165 15c-8.28 0-15-6.72-15-15s6.72-15 15-15 15 6.72 15 15-6.72 15-15 15zm120 0c-8.28 0-15-6.72-15-15s6.72-15 15-15 15 6.72 15 15-6.72 15-15 15zm45-15c0-24.81-20.19-45-45-45-24.26 0-34.93 18.45-49.96 29.94-5.71 5.14-14.37 5.14-20.08 0-14.5-11.08-25.78-29.94-49.96-29.94-24.81 0-45 20.19-45 45s20.19 45 45 45c7.78 0 15.61-2.26 22.64-6.52 9.46-5.74 21.68.41 22.72 11.41.73 7.79 8.17 15.92 14.64 21.45 6.46-5.52 13.91-13.66 14.64-21.45 1.04-11.01 13.27-17.15 22.72-11.41 7.03 4.26 14.86 6.52 22.64 6.52 24.81 0 45-20.19 45-45zm-165 15c-8.28 0-15-6.72-15-15s6.72-15 15-15 15 6.72 15 15-6.72 15-15 15zm120 0c-8.28 0-15-6.72-15-15s6.72-15 15-15 15 6.72 15 15-6.72 15-15 15z"
         id="path3904"
         style="fill:#363b4e;fill-opacity:1" />
    </g>
  </g>
</svg>
