<svg id="Capa_1" enable-background="new 0 0 512 512" height="512" viewBox="0 0 512 512" width="512" xmlns="http://www.w3.org/2000/svg"><g><path d="m196 242c-41.355 0-75 33.645-75 75s33.645 75 75 75c7.277 0 14.537-1.131 21.544-3.327 9.809 17.922 27.988 29.505 30.62 31.117 4.807 2.946 10.863 2.946 15.672 0 2.632-1.612 20.812-13.195 30.62-31.117 7.007 2.196 14.267 3.327 21.544 3.327 41.355 0 75-33.645 75-75s-33.645-75-75-75c-16.13 0-31.883 5.456-45 15.46v-45.46h75c24.813 0 45-20.187 45-45 0-8.284-6.716-15-15-15s-15 6.716-15 15c0 8.271-6.729 15-15 15h-75v-30h75c24.813 0 45-20.187 45-45 0-8.284-6.716-15-15-15s-15 6.716-15 15c0 8.271-6.729 15-15 15h-75v-30c0-8.284-6.716-15-15-15s-15 6.716-15 15v30h-75c-8.271 0-15-6.729-15-15 0-8.284-6.716-15-15-15s-15 6.716-15 15c0 24.813 20.187 45 45 45h75v30h-75c-8.271 0-15-6.729-15-15 0-8.284-6.716-15-15-15s-15 6.716-15 15c0 24.813 20.187 45 45 45h75v45.46c-13.118-10.004-28.87-15.46-45-15.46zm120 30c24.813 0 45 20.187 45 45s-20.187 45-45 45c-7.78 0-15.609-2.255-22.642-6.523-9.454-5.738-21.678.408-22.715 11.416-.734 7.789-8.184 15.926-14.642 21.45-6.469-5.531-13.911-13.665-14.646-21.45-1.043-11.071-13.335-17.108-22.715-11.416-7.031 4.268-14.86 6.523-22.64 6.523-24.813 0-45-20.187-45-45s20.187-45 45-45c24.256 0 34.929 18.451 49.961 29.939 5.705 5.14 14.373 5.14 20.078 0 14.501-11.082 25.783-29.939 49.961-29.939z"/><path d="m497 0h-482c-8.284 0-15 6.716-15 15v482c0 8.284 6.716 15 15 15h482c8.284 0 15-6.716 15-15v-482c0-8.284-6.716-15-15-15zm-15 482h-452v-452h452z"/><path d="m436 422h-90c-8.284 0-15 6.716-15 15s6.716 15 15 15h90c8.284 0 15-6.716 15-15s-6.716-15-15-15z"/><circle cx="316" cy="317" r="15"/><circle cx="196" cy="317" r="15"/><path d="m76 452h90c8.284 0 15-6.716 15-15s-6.716-15-15-15h-90c-8.284 0-15 6.716-15 15s6.716 15 15 15z"/><circle cx="436" cy="77" r="15"/><circle cx="76" cy="77" r="15"/></g></svg>