<?xml version="1.0" encoding="iso-8859-1"?>
<!-- Generator: Adobe Illustrator 19.0.0, SVG Export Plug-In . SVG Version: 6.00 Build 0)  -->
<svg version="1.1" id="Capa_1" xmlns="http://www.w3.org/2000/svg" xmlns:xlink="http://www.w3.org/1999/xlink" x="0px" y="0px"
	 viewBox="0 0 512 512" style="enable-background:new 0 0 512 512;" xml:space="preserve">
<g>
	<path style="fill:#87D2F3;" d="M53.333,10.667h405.333c23.564,0,42.667,19.103,42.667,42.667v405.333
		c0,23.564-19.103,42.667-42.667,42.667H53.333c-23.564,0-42.667-19.103-42.667-42.667V53.333
		C10.667,29.769,29.769,10.667,53.333,10.667z"/>
	<circle style="fill:#87D2F3;" cx="330.667" cy="341.333" r="32"/>
	<circle style="fill:#87D2F3;" cx="181.333" cy="341.333" r="32"/>
</g>
<path style="fill:#FFFFFF;" d="M330.667,256c47.128,0.002,85.332,38.208,85.33,85.336s-38.208,85.332-85.336,85.331
	c-11.121,0-22.134-2.174-32.421-6.4c-2.227,23.328-22.943,40.435-46.272,38.208c-20.247-1.933-36.275-17.961-38.208-38.208
	c-43.59,17.916-93.451-2.896-111.367-46.486c-17.916-43.59,2.896-93.451,46.486-111.367c40.084-16.476,86.153-0.288,107.121,37.64
	C271.021,272.878,299.617,256.006,330.667,256z M362.667,341.333c0-17.673-14.327-32-32-32c-17.673,0-32,14.327-32,32
	c0,17.673,14.327,32,32,32C348.34,373.333,362.667,359.006,362.667,341.333z M213.333,341.333c0-17.673-14.327-32-32-32
	s-32,14.327-32,32c0,17.673,14.327,32,32,32S213.333,359.006,213.333,341.333z"/>
<g>
	<path style="fill:#2170A6;" d="M458.667,0H53.333C23.893,0.035,0.035,23.893,0,53.333v405.333
		C0.035,488.107,23.893,511.965,53.333,512h405.333c29.441-0.035,53.298-23.893,53.333-53.333V53.333
		C511.965,23.893,488.107,0.035,458.667,0z M490.667,458.667c0,17.673-14.327,32-32,32H53.333c-17.673,0-32-14.327-32-32V53.333
		c0-17.673,14.327-32,32-32h405.333c17.673,0,32,14.327,32,32V458.667z"/>
	<path style="fill:#2170A6;" d="M330.667,245.333c-23.643,0.044-46.436,8.823-64,24.651V224H320
		c22.889,0.676,41.991-17.331,42.667-40.22c0.024-0.815,0.024-1.631,0-2.447h-21.333c0.706,11.076-7.701,20.628-18.777,21.333
		c-0.851,0.054-1.705,0.054-2.556,0h-53.333V160H320c22.889,0.676,41.991-17.331,42.667-40.22c0.024-0.815,0.024-1.631,0-2.447
		h-21.333c0.706,11.076-7.701,20.628-18.777,21.333c-0.851,0.054-1.705,0.054-2.556,0h-53.333V96H320
		c22.889,0.676,41.991-17.331,42.667-40.22c0.024-0.815,0.024-1.631,0-2.447h-21.333c0.706,11.076-7.701,20.628-18.777,21.333
		c-0.851,0.054-1.705,0.054-2.556,0h-53.333v-32h-21.333v32H192c-11.076,0.709-20.63-7.695-21.339-18.771
		c-0.056-0.882-0.055-1.766,0.005-2.647L160,53.333h-10.667C148.664,76.228,166.681,95.33,189.575,96
		c0.808,0.024,1.617,0.024,2.425,0h53.333v42.667H192c-11.076,0.709-20.63-7.695-21.339-18.771
		c-0.056-0.882-0.055-1.766,0.005-2.647L160,117.333h-10.667c-0.67,22.895,17.347,41.997,40.242,42.667
		c0.808,0.024,1.617,0.024,2.425,0h53.333v42.667H192c-11.076,0.709-20.63-7.695-21.339-18.771
		c-0.056-0.882-0.055-1.766,0.005-2.647L160,181.333h-10.667c-0.67,22.895,17.347,41.997,40.242,42.667
		c0.808,0.024,1.617,0.024,2.425,0h53.333v45.984c-39.458-35.361-100.11-32.04-135.471,7.418s-32.04,100.11,7.418,135.471
		c24.095,21.593,57.45,29.587,88.715,21.261c9.863,27.617,40.247,42.01,67.864,32.147c14.993-5.354,26.792-17.154,32.147-32.147
		c51.252,13.575,103.805-16.969,117.38-68.221s-16.969-103.805-68.221-117.38C347.17,246.416,338.936,245.34,330.667,245.333z
		 M330.667,416c-9.752-0.022-19.408-1.927-28.437-5.611c-5.464-2.203-11.679,0.44-13.882,5.904
		c-0.378,0.937-0.621,1.923-0.721,2.928c-1.185,12.263-9.354,22.736-20.96,26.869v-72.757h-21.333v72.757
		c-11.613-4.137-19.783-14.619-20.96-26.891c-0.55-5.471-5.168-9.628-10.667-9.6c-1.368,0.002-2.723,0.27-3.989,0.789
		c-9.013,3.677-18.65,5.582-28.384,5.611c-41.237,0.006-74.672-33.418-74.678-74.656s33.418-74.672,74.656-74.678
		c27.175-0.004,52.206,14.757,65.355,38.539c3.29,5.155,10.135,6.667,15.29,3.377c1.358-0.867,2.51-2.019,3.377-3.377
		c19.953-36.089,65.384-49.169,101.472-29.216c36.089,19.953,49.169,65.384,29.216,101.472
		C382.873,401.243,357.842,416.004,330.667,416z"/>
	<path style="fill:#2170A6;" d="M181.333,298.667c-23.564,0-42.667,19.103-42.667,42.667c0,23.564,19.103,42.667,42.667,42.667
		S224,364.898,224,341.333C224,317.769,204.897,298.667,181.333,298.667z M181.333,362.667c-11.782,0-21.333-9.551-21.333-21.333
		S169.551,320,181.333,320s21.333,9.551,21.333,21.333S193.115,362.667,181.333,362.667z"/>
	<path style="fill:#2170A6;" d="M330.667,298.667c-23.564,0-42.667,19.103-42.667,42.667C288,364.898,307.103,384,330.667,384
		s42.667-19.102,42.667-42.667C373.333,317.769,354.231,298.667,330.667,298.667z M330.667,362.667
		c-11.782,0-21.333-9.551-21.333-21.333S318.885,320,330.667,320c11.782,0,21.333,9.551,21.333,21.333
		S342.449,362.667,330.667,362.667z"/>
	<path style="fill:#2170A6;" d="M245.333,330.667h21.333V352h-21.333V330.667z"/>
	<path style="fill:#2170A6;" d="M96,42.667H74.667c-17.171-0.502-31.498,13.01-32,30.181c-0.018,0.606-0.018,1.213,0,1.819V96H64
		V74.667c-0.527-5.365,3.395-10.14,8.76-10.667c0.634-0.062,1.273-0.062,1.907,0H96V42.667z"/>
	<path style="fill:#2170A6;" d="M448,437.333c0.527,5.365-3.395,10.14-8.76,10.667c-0.634,0.062-1.273,0.062-1.907,0H416v21.333
		h21.333c17.171,0.502,31.498-13.01,32-30.181c0.018-0.606,0.018-1.213,0-1.819V416H448V437.333z"/>
</g>
<g>
</g>
<g>
</g>
<g>
</g>
<g>
</g>
<g>
</g>
<g>
</g>
<g>
</g>
<g>
</g>
<g>
</g>
<g>
</g>
<g>
</g>
<g>
</g>
<g>
</g>
<g>
</g>
<g>
</g>
</svg>
